/* XPM */
static char *_5eab7c2bf964d0ce204d9e32870730d[] = {
/* columns rows colors chars-per-pixel */
"64 64 79 1 ",
"  c #B70000",
". c #BD0000",
"X c #C20501",
"o c #C30904",
"O c #C40E09",
"+ c #C6120D",
"@ c #C61511",
"# c #C81512",
"$ c #C71915",
"% c #C81A16",
"& c #C71D19",
"* c #C81E1A",
"= c #C9211D",
"- c #CA2521",
"; c #CC2A26",
": c #CC2D29",
"> c #D22726",
", c #D02927",
"< c #D22B2A",
"1 c #CC312C",
"2 c #CE3431",
"3 c #CE3A36",
"4 c #CF3D3A",
"5 c #D23634",
"6 c #D13936",
"7 c #D03E3B",
"8 c #D2413D",
"9 c #D34441",
"0 c #D34A46",
"q c #D54C49",
"w c #D5504E",
"e c #D65451",
"r c #D75956",
"t c #D85956",
"y c #D95D5A",
"u c #D9605E",
"i c #DA6563",
"p c #DB6866",
"a c #DC6C6A",
"s c #DE716F",
"d c #DE7572",
"f c #DF7976",
"g c #DF7C7A",
"h c #E07A77",
"j c #E2807E",
"k c #DF8281",
"l c #E18583",
"z c #E38987",
"x c #E48C8A",
"c c #E4908E",
"v c #E69795",
"b c #E79897",
"n c #E79C9A",
"m c #E89F9D",
"M c #E7A5A3",
"N c #EAA5A4",
"B c #EAA8A6",
"V c #ECADAC",
"C c #EDB0AF",
"Z c #EDB4B2",
"A c #EEB9B7",
"S c #EFBBB9",
"D c #F0BCBB",
"F c #F1C4C4",
"G c #F3CCCC",
"H c #F3D1CF",
"J c #F5D5D4",
"K c #F6D8D7",
"L c #F6DCDB",
"P c #F8DCDC",
"I c #F8E0DF",
"U c #F7E2E2",
"Y c #F9E4E4",
"T c #F9E8E7",
"R c #FAEBEB",
"E c #FBF0EF",
"W c #FDF4F4",
"Q c #FFFFFF",
"! c None",
/* pixels */
"!!!!!!!!!!!!!!!!!!!!!!!!!!!!!!!!!!!!!!!!!!!!!!!!!!!!!!!!!!!!!!!!",
"!!!!!!!!!!!!!!!!!!!!!!!!!!!!!!!,:!!!!!!!!!!!!!!!!!!!!!!!!!!!!!!!",
"!!!!!!!!!!!!!!!!!!!!!!!!!!!!,::::::>!!!!!!!!!!!!!!!!!!!!!!!!!!!!",
"!!!!!!!!!!!!!!!!!!!!!!!!!!>:1::::::1:!!!!!!!!!!!!!!!!!!!!!!!!!!!",
"!!!!!!!!!!!!!!!!!!!!!!!!!,1:::::::::::,!!!!!!!!!!!!!!!!!!!!!!!!!",
"!!!!!!!!!!!!!!!!!!!!!!!,:1::::-@@,::::1:!!!!!!!!!!!!!!!!!!!!!!!!",
"!!!!!!!!!!!!!!!!!!!!!!:::::1;o&wq@o:::::1,!!!!!!!!!!!!!!!!!!!!!!",
"!!!!!!!!!!!!!!!!!!!!,1::::1+ouGQQDwX$1:::1:!!!!!!!!!!!!!!!!!!!!!",
"!!!!!!!!!!!!!!!!!!!:1:,:1-.1CQQLGQQm-X,:::::,!!!!!!!!!!!!!!!!!!!",
"!!!!!!!!!!!!!!!!!!:::::1+odEQQQx0QQQRuX@1:::1*!!!!!!!!!!!!!!!!!!",
"!!!!!!!!!!!!!!!!2;:::1-X1DQQUQQt.EQUQQB-X;1:<:&5!!!!!!!!!!!!!!!!",
"!!!!!!!!!!!!!!!1=:::1@XaWQQQM-11:2&dRQQTtX&1::1+-!!!!!!!!!!!!!!!",
"!!!!!!!!!!!!!<:-::1,X=VQQQQQQM-$;@fEQQQQQb#o1::1@,!!!!!!!!!!!!!!",
"!!!!!!!!!!!!<:;::1=XwTQQQQQQQQk..2QQQQQQQQJ8X-1:1==<!!!!!!!!!!!!",
"!!!!!!!!!!!:1:::1OOxQQQQQQQQQTOdm.MQQQQQQQQQdX@1:::1,!!!!!!!!!!!",
"!!!!!!!!!!::::::X,FQQQQQQQQQQVkQQVkQQQQQQQQQQV*o::::::!!!!!!!!!!",
"!!!!!!!!<::::1=XtEQQQQQQQQQQQWQQQQQQWJJJHHTQQQU9.-1::::!!!!!!!!!",
"!!!!!!!,:;::1@oxQQQQQQQQM:q;BQQQQQQg1&&&*%-tJQQQdX%1,11:>!!!!!!!",
"!!!!!!:1:1::X*DQQQQQQQQQz.@.xQQQQW9.%----;=X+GQQQB#O1:::1,!!!!!!",
"!!!!!;1:;1;X9TQQQQQQQQQQvX:ovQQQQxX11&++O$:2X8QQQQJ1X::,:1,!!!!!",
"!!!!::::1=XpQQQQQQQQQQQQvX:ovQQQW3@1&1rry9$1;OFQQQQWeX-1::1;!!!!",
"!!!:1::1$XxQQQQQQQQQQQQQvX:ovQQQU=-=:IQQQQr+:XmQQQQQQdX*1::1:!!!",
"!!;1::1@OCQQQQQQQQQQQQQQvo:XnQQQL&-+rQQQQQnX;onQQQQQQQvX$1:::<!!",
"!!1::1@@FQQQTWQQQQQTQQQQvX:XnQQQL&-+eQQQQQcX:omQQQRRQQQVO&1:::!!",
"!::::;+FQQRq+OcQQG-@&ZQQvo:-8eee0,:+eQQQQQco;omQQdoofQQQVO;::1,!",
"!::::ohQQQkXSloTQ9:S0;QQv.11=+++$::+eQQQQQcX:omQA VC.FQQQyO::::!",
"!::::XVQQQs3QE@LQ1gQM-QQvX:1,=---::+eQQQQQco:omQJzQQ+ZQQQxX:::,!",
"!,::;XvQQQf2QH.LQ4aQc:QQvX::--==-::+eQQQQQcX;omQQQFg2TQQQho:::>!",
"!,:::oaQQQf2QEFWQ4aQc:QQvo:OlLKLA--+eQQQQQco1omQQQ4 gQQQQe+::1!!",
"!!1::$8QQQf2QQQQQ7aQc:QQvX;XBQQQR=-+eQQQQQcX:.mQQQES&JQQR;=:::!!",
"!!:::-&KQQf2QWUQQ4aQc:QQvX:onQQQL==+eQQQQQcX:omQQQQQ@ZQQDO::1,!!",
"!!,1::XMQQf2QJ=IQ7aQc:QQvo:XnQQQJ=-+eQQQQQco:omQGeQW$AQQzX:::,!!",
"!!,1::oaQQf2QH@LQ4aQc:QQvX:obQQQK=-+eQQQQQco;omQC.QQ$SQQe+:::!!!",
"!!!1::%6QQs3QE&LQ1gQM-QQvX:ovQQQJ=-+eQQQQQcX:omQZ@QQ@CQT-=:::!!!",
"!!!:::;+FQkoSlXTQ9:S0;QQvX:XbQQQJ=-+eQQQQQco:omQF.BBXGQCX::1,!!!",
"!!!;::1.cQR0+OxQQG;+$AQQvX:ovQQQJ=-+eQQQQQcX,omQQfO.gQQdo:::,!!!",
"!!!>1::OeQQQTWQQQQQTQQQQvX;ovQQQJ=-+eQQQQQco:omQQQRRQQW7$:::!!!!",
"!!!!:::-=TQQQQQQQQQQQQQQvo:ovQQQJ*-+eQQQQQcX:omQQQQQQQG+;:::!!!!",
"!!!!,:::XNQQQQQQQQQQQQQQvX;ovQQQJ=-+eQQQQQco;omQQQQQQQzX::1,!!!!",
"!!!!<:::XiQQQQQQQQQQQQQQvo:ovQQQJ=-+eQQQQQcX:omQQQQQQQq+:::<!!!!",
"!!!!!:::&:WQQQQQQQQQQQQQvX;ovQQQJ=-+eQQQQQcX:omQQQQQQP&-::1!!!!!",
"!!!!!::::oZQQQQQQQQQQQQQvo1ovQQQJ=-+eQQQQQcX;omQQQQQQbX::-6!!!!!",
"!!!!!,1::XsQQQQQQQQQQQQQvX;ovQQQJ=-+eQQQQQco:omQQQQQQeO::;9!!!!!",
"!!!!!!:::&2WQQQQQQQQQQQQvo;ovQQQJ*-+eQQQQQcX:omQQQQQY&-::1!!!!!!",
"!!!!!!:::,oAQQQQQQQQQQQQvX:ovQQQJ=-+eQQQQQcX:omQQQQQmX:::1!!!!!!",
"!!!!!!,1::XdQQQQQQQQQQQQvX:ovQQQJ=-+eQQQQQcX:omQQQQQeO::1,!!!!!!",
"!!!!!!!1::&:WQQQQQQQQQQQvX:ovQQQJ=-+eQQQQQco:omQQQQU$-:::!!!!!!!",
"!!!!!!!::::XZQQQQQQQQQQQvX:ovQQQJ*-+tQQQQQvX,omQQQQvX::1,!!!!!!!",
"!!!!!!!,1::oiQQQQQQQQQQQvX:ovQQQH=-@0QQQQQxX;XbQQQQ0+::1,!!!!!!!",
"!!!!!!!!:::==RQQQQQQQQQQvX;ovQQQR-=,&cGGGZ2=1oBQQQJ+-:::!!!!!!!!",
"!!!!!!!!::::XnQQQQQQQQQQvo:ovQQQQeX2;+$%%+=1=$IQQQgX1:1,!!!!!!!!",
"!!!!!!!!,1::+qQQQQQQQQQQvX;ovQQQQS.$1:-;-;1;.fQQQW5%:::!!!!!!!!!",
"!!!!!!!!!1::;OJQQQQQQQQQl.o.kQQQQQnoXoOoOoXXuQQQQZX::::!!!!!!!!!",
"!!!!!!!!!,:::XsQQQQQQQQQHxmxHQQQQQQLkiipiidZQQQQQto::1,!!!!!!!!!",
"!!!!!!!!!>:::-#RQQQQQQQQQQQQQQQQQQQQQQQQQQQQQQQQJO,:::!!!!!!!!!!",
"!!!!!!!!!!:::1oeQQQQQQQQQQQQQQQQQQQQQQQQQQQQQQQW8O::::!!!!!!!!!!",
"!!!!!!!!!!<1:::owNGLTEQQQQQQQQQQQQQQQQQQQWWTKFv8O1::1!!!!!!!!!!!",
"!!!!!!!!!!!::::1+o#=<68qweyuppaaspppirew086:=#o@1::1;!!!!!!!!!!!",
"!!!!!!!!!!!,1:::::--=&%@@++OOOoOoOOoOO+@@$&==,:::::1!!!!!!!!!!!!",
"!!!!!!!!!!!!:1::::::::::::::;:::::::::::::::<:::::1,!!!!!!!!!!!!",
"!!!!!!!!!!!!!,1::::::::::::::::::::::::::::::::1::,!!!!!!!!!!!!!",
"!!!!!!!!!!!!!!!,,:::::::::1::1::::1::1::::::::;,,!!!!!!!!!!!!!!!",
"!!!!!!!!!!!!!!!!!!!!!!!!!!!,,,,,,,,,,!!!!!!!!!!!!!!!!!!!!!!!!!!!",
"!!!!!!!!!!!!!!!!!!!!!!!!!!!!!!!!!!!!!!!!!!!!!!!!!!!!!!!!!!!!!!!!"
};
