/* XPM */
static char *ddebf38acbd84e99ae27a47e7bff3e6f[] = {
/* columns rows colors chars-per-pixel */
"16 16 135 2 ",
"   c #C10000",
".  c #C20100",
"X  c #C20300",
"o  c #C60200",
"O  c #C10500",
"+  c #C20400",
"@  c #C20500",
"#  c #C70704",
"$  c #C30803",
"%  c #C30B06",
"&  c #C40905",
"*  c #C50905",
"=  c #C60905",
"-  c #C40A06",
";  c #C70A07",
":  c #C80805",
">  c #C80A07",
",  c #C20D08",
"<  c #C20D09",
"1  c #C20E08",
"2  c #C80A08",
"3  c #C71611",
"4  c #C81511",
"5  c #C91511",
"6  c #C41812",
"7  c #C41913",
"8  c #C41914",
"9  c #C61E19",
"0  c #C9201C",
"q  c #CC201E",
"w  c #CA2521",
"e  c #CA2824",
"r  c #CB2B27",
"t  c #CA2F29",
"y  c #CD312E",
"u  c #CE3733",
"i  c #CC3A35",
"p  c #CE3E39",
"a  c #CE3F3A",
"s  c #D03A37",
"d  c #CF423E",
"f  c #D0413D",
"g  c #D1433F",
"h  c #D24844",
"j  c #D44E4B",
"k  c #D4504D",
"l  c #D5514D",
"z  c #D5524F",
"x  c #D3544F",
"c  c #D35652",
"v  c #D55450",
"b  c #D75855",
"n  c #D75955",
"m  c #D75956",
"M  c #D75A56",
"N  c #D55E5A",
"B  c #D85D5A",
"V  c #D85E5B",
"C  c #D95F5C",
"Z  c #D76561",
"A  c #D96561",
"S  c #DA6562",
"D  c #D86663",
"F  c #DA6764",
"G  c #DA6B67",
"H  c #DC6C69",
"J  c #DB6F6C",
"K  c #DF7A77",
"L  c #DF7A78",
"P  c #DE7C79",
"I  c #DE7D7A",
"U  c #DE7E7B",
"Y  c #DF817E",
"T  c #DF827F",
"R  c #E0817F",
"E  c #E18684",
"W  c #E18784",
"Q  c #E28886",
"!  c #E18A87",
"~  c #E38E8C",
"^  c #E38F8C",
"/  c #E3918E",
"(  c #E4908F",
")  c #E59795",
"_  c #E69896",
"`  c #E69997",
"'  c #E79C9A",
"]  c #E7A09F",
"[  c #E8A4A2",
"{  c #E9A6A5",
"}  c #E9A8A6",
"|  c #EBABA9",
" . c #EBACAB",
".. c #EBAEAC",
"X. c #ECAFAE",
"o. c #EBB0AF",
"O. c #EDB3B2",
"+. c #EDB5B4",
"@. c #EEB8B7",
"#. c #EEB9B8",
"$. c #EEBBBA",
"%. c #EEBCBA",
"&. c #EFBDBC",
"*. c #F0C0BF",
"=. c #EFC1C0",
"-. c #EFC1C1",
";. c #F0C1C0",
":. c #F1C4C2",
">. c #F1C4C3",
",. c #F0C5C4",
"<. c #F2CAC9",
"1. c #F2CDCD",
"2. c #F3D1D0",
"3. c #F5D3D2",
"4. c #F4D4D3",
"5. c #F6D6D5",
"6. c #F5D9D9",
"7. c #F7DAD9",
"8. c #F7DCDB",
"9. c #F7DFDE",
"0. c #F9E2E2",
"q. c #F8E3E3",
"w. c #F9E6E5",
"e. c #F9E9E8",
"r. c #FAECEB",
"t. c #FBEDEC",
"y. c #FBEEEE",
"u. c #FBF1F1",
"i. c #FCF1F0",
"p. c #FCF4F3",
"a. c #FCF4F4",
"s. c #FDF5F5",
"d. c #FEFBFB",
"f. c gray100",
"g. c None",
/* pixels */
"g.g.g.g.g.g.g.5 5 g.g.g.g.g.g.g.",
"g.g.g.g.g.g.O D G O g.g.g.g.g.g.",
"g.g.g.g.q , / ;.O.) , s g.g.g.g.",
"g.g.g.. t <.f.~ R f.y.p . g.g.g.",
"g.g.O D f.f.L f.w.y b 0.L O g.g.",
"g.6 I f.f.p.r 5.C L b D f.E 6 g.",
", E f.} { -.V 0 3 f.:.b %.d./ % ",
"> Y r.,.o.1.j #.b 6. .B e.0.! > ",
"g.p @.} ] #.c t.H 2.X.k ;.;.g g.",
"g.- ..s.s.i.h 8.D 4. .n i.+.- g.",
"g.o I f.f.f.g 7.D 3.| k f.T # g.",
"g.g.i f.f.f.g 6.n s.:.k f.p g.g.",
"g.g.O &.f.f.w 9.K u r ` y.O g.g.",
"g.g.2 x f.f.3.f.f.~ ' f.Z > g.g.",
"g.g.g.9 c J ) R ! [ ` B 8 g.g.g.",
"g.g.g.g.g.> - - # - 2 g.g.g.g.g."
};
