/* XPM */
static char *_6472fb806714e428aa4be5fec87d137[] = {
/* columns rows colors chars-per-pixel */
"32 32 74 1 ",
"  c #B50000",
". c #BC0000",
"X c #C10301",
"o c #C30A05",
"O c #C40E09",
"+ c #C5120D",
"@ c #C61611",
"# c #C61914",
"$ c #C91B17",
"% c #C61E19",
"& c #C81D19",
"* c #C6221D",
"= c #C9211C",
"- c #CA2622",
"; c #CA2A25",
": c #CD2E2A",
"> c #D22726",
", c #D02927",
"< c #D22D2B",
"1 c #CC322D",
"2 c #CC3531",
"3 c #CF3935",
"4 c #D23331",
"5 c #D13936",
"6 c #D03D39",
"7 c #D2423E",
"8 c #D24441",
"9 c #D34945",
"0 c #D54F4C",
"q c #D5524E",
"w c #D65653",
"e c #D75956",
"r c #D85956",
"t c #D75C5A",
"y c #D95E5B",
"u c #DA6562",
"i c #DC6D6B",
"p c #DD726F",
"a c #DE7472",
"s c #DE7A77",
"d c #DF7C7A",
"f c #E07E7D",
"g c #E0807D",
"h c #E18583",
"j c #E38A87",
"k c #E38D8B",
"l c #E4918F",
"z c #E69493",
"x c #E79997",
"c c #E79C9B",
"v c #E89F9D",
"b c #E7A09E",
"n c #E9A4A2",
"m c #EAA9A7",
"M c #EBADAB",
"N c #ECB0AF",
"B c #EEB4B2",
"V c #EDB8B7",
"C c #EFBCBB",
"Z c #F0BEBD",
"A c #EFC2C1",
"S c #F1C5C4",
"D c #F2C8C7",
"F c #F3CECD",
"G c #F4D0CF",
"H c #F5D3D2",
"J c #F7DCDB",
"K c #F8DEDD",
"L c #F7E0DF",
"P c #F9E4E4",
"I c #FAEBEA",
"U c #FDF4F4",
"Y c #FFFFFF",
"T c None",
/* pixels */
"TTTTTTTTTTTTTTTTTTTTTTTTTTTTTTTT",
"TTTTTTTTTTTTTTT::,TTTTTTTTTTTTTT",
"TTTTTTTTTTTTT:1%+;1>TTTTTTTTTTTT",
"TTTTTTTTTTT>1;X5u&o1<TTTTTTTTTTT",
"TTTTTTTTTT;1+ogYYPe.*2$TTTTTTTTT",
"TTTTTTTTT;;X2ZYSpKUl@o;&TTTTTTTT",
"TTTTTTT4:@XpYYP9 tUYH8X#5TTTTTTT",
"TTTTTT1;X=MYYYYx1nYYYYhoo=<TTTTT",
"TTTTT1;X9PYYUPIIYUIDDKYZ=X1:TTTT",
"TTTT2%XaYYYYN.gYYV@..XuYP8X;1TTT",
"TT>2@OnYYYYYm.aYI&owy1.cYYiX=1TT",
"TT2+&HYYYYYYm.jYIX0YYm pYYYlX-1T",
"T:*;LYpmYcaUA.0kaoyYYB.lUpnYn@;T",
"T:XjYxphMkaDH@O..+yYYM.xKlpIY8#T",
"T:osYzNIZNVAG.tnhoeYYM.sYSyUY6$T",
"T>#8YnnYGnmSG.lYIXwYYM.gYPfUJ@;T",
"TT;$UNZAbZZZH.fYHXwYYM.bSANUmX:T",
"TT:XSFwhSgeHH.sYGXwYYM.bGqdUiO:T",
"TT:OiYlZYVzYV.fYFXwYYM.hYcZU:*>T",
"TT,*;UYYYYYYM.sYGXwYYM.sYYYBX:TT",
"TTT:oVYYYYYYN.dYGXwYYM.gYYYpX2TT",
"TTT:XpYYYYYYN.dYFXwYYM.gYYU3#5TT",
"TTT>*2UYYYYYM.sYGXwYYM.gYYZo:TTT",
"TTTT:oCYYYYYB.dYGXeYYB.dYYaX1TTT",
"TTTT1oiYYYYYN.sYFXqYYm.sYU2*;TTT",
"TTTT>*-UYYYYm.aYI@Oyu5.xYVX:TTTT",
"TTTTT1XnYYYYM.sYYnO..XrUYyo:TTTT",
"TTTTT:+6YYYYYIYYYYUHJPYYK+;>TTTT",
"TTTTT>1OiAHPUYYUUUYYYYJB7@1TTTTT",
"TTTTTT:1O@=::2566652:;$O@2>TTTTT",
"TTTTTTT::;-==&&&#$&&==;:::TTTTTT",
"TTTTTTTTTTTTTTTTTTTTTTTTTTTTTTTT"
};
